<mxfile host="app.diagrams.net" modified="2024-04-28T17:56:52.219Z" agent="Mozilla/5.0 (Macintosh; Intel Mac OS X 10.15; rv:125.0) Gecko/20100101 Firefox/125.0" etag="FMOfbCx6-UVO3iiwVbJy" version="24.2.5" type="device">
  <diagram name="Page-1" id="Vw2ctygBi8jDePdVm4EY">
    <mxGraphModel dx="967" dy="599" grid="1" gridSize="10" guides="1" tooltips="1" connect="1" arrows="1" fold="1" page="1" pageScale="1" pageWidth="3300" pageHeight="4681" math="0" shadow="0">
      <root>
        <mxCell id="0" />
        <mxCell id="1" parent="0" />
        <mxCell id="5tlT3aTpp_UVnlQwJKPw-9" style="edgeStyle=orthogonalEdgeStyle;rounded=0;orthogonalLoop=1;jettySize=auto;html=1;exitX=1;exitY=0.5;exitDx=0;exitDy=0;entryX=0;entryY=0.5;entryDx=0;entryDy=0;" edge="1" parent="1" source="5tlT3aTpp_UVnlQwJKPw-1" target="5tlT3aTpp_UVnlQwJKPw-4">
          <mxGeometry relative="1" as="geometry" />
        </mxCell>
        <mxCell id="5tlT3aTpp_UVnlQwJKPw-1" value="app.ts" style="rounded=1;whiteSpace=wrap;html=1;" vertex="1" parent="1">
          <mxGeometry x="610" y="390" width="110" height="60" as="geometry" />
        </mxCell>
        <mxCell id="5tlT3aTpp_UVnlQwJKPw-3" style="edgeStyle=orthogonalEdgeStyle;rounded=0;orthogonalLoop=1;jettySize=auto;html=1;exitX=1;exitY=0.5;exitDx=0;exitDy=0;" edge="1" parent="1" source="5tlT3aTpp_UVnlQwJKPw-2" target="5tlT3aTpp_UVnlQwJKPw-1">
          <mxGeometry relative="1" as="geometry" />
        </mxCell>
        <mxCell id="5tlT3aTpp_UVnlQwJKPw-2" value="&lt;div&gt;server.ts&lt;/div&gt;" style="rounded=1;whiteSpace=wrap;html=1;" vertex="1" parent="1">
          <mxGeometry x="470" y="390" width="110" height="60" as="geometry" />
        </mxCell>
        <mxCell id="5tlT3aTpp_UVnlQwJKPw-10" style="edgeStyle=orthogonalEdgeStyle;rounded=0;orthogonalLoop=1;jettySize=auto;html=1;exitX=1;exitY=0.5;exitDx=0;exitDy=0;entryX=0;entryY=0.5;entryDx=0;entryDy=0;" edge="1" parent="1" source="5tlT3aTpp_UVnlQwJKPw-4" target="5tlT3aTpp_UVnlQwJKPw-5">
          <mxGeometry relative="1" as="geometry" />
        </mxCell>
        <mxCell id="5tlT3aTpp_UVnlQwJKPw-4" value="routes/" style="rounded=1;whiteSpace=wrap;html=1;" vertex="1" parent="1">
          <mxGeometry x="750" y="390" width="110" height="60" as="geometry" />
        </mxCell>
        <mxCell id="5tlT3aTpp_UVnlQwJKPw-11" style="edgeStyle=orthogonalEdgeStyle;rounded=0;orthogonalLoop=1;jettySize=auto;html=1;exitX=1;exitY=0.5;exitDx=0;exitDy=0;entryX=0;entryY=0.5;entryDx=0;entryDy=0;" edge="1" parent="1" source="5tlT3aTpp_UVnlQwJKPw-5" target="5tlT3aTpp_UVnlQwJKPw-6">
          <mxGeometry relative="1" as="geometry" />
        </mxCell>
        <mxCell id="5tlT3aTpp_UVnlQwJKPw-5" value="controllers/" style="rounded=1;whiteSpace=wrap;html=1;" vertex="1" parent="1">
          <mxGeometry x="890" y="390" width="110" height="60" as="geometry" />
        </mxCell>
        <mxCell id="5tlT3aTpp_UVnlQwJKPw-12" style="edgeStyle=orthogonalEdgeStyle;rounded=0;orthogonalLoop=1;jettySize=auto;html=1;exitX=1;exitY=0.5;exitDx=0;exitDy=0;entryX=0;entryY=0.5;entryDx=0;entryDy=0;" edge="1" parent="1" source="5tlT3aTpp_UVnlQwJKPw-6" target="5tlT3aTpp_UVnlQwJKPw-7">
          <mxGeometry relative="1" as="geometry" />
        </mxCell>
        <mxCell id="5tlT3aTpp_UVnlQwJKPw-6" value="services/" style="rounded=1;whiteSpace=wrap;html=1;" vertex="1" parent="1">
          <mxGeometry x="1030" y="390" width="110" height="60" as="geometry" />
        </mxCell>
        <mxCell id="5tlT3aTpp_UVnlQwJKPw-7" value="db/" style="rounded=1;whiteSpace=wrap;html=1;" vertex="1" parent="1">
          <mxGeometry x="1170" y="390" width="110" height="60" as="geometry" />
        </mxCell>
      </root>
    </mxGraphModel>
  </diagram>
</mxfile>
